<?xml version="1.0" encoding="UTF-8" standalone="no"?>
<!-- Created with Inkscape (http://www.inkscape.org/) -->

<svg
   width="3780"
   height="3780"
   viewBox="0 0 1000.125 1000.125"
   version="1.1"
   id="svg1"
   xml:space="preserve"
   inkscape:version="1.4 (e7c3feb100, 2024-10-09)"
   sodipodi:docname="icon.svg"
   xmlns:inkscape="http://www.inkscape.org/namespaces/inkscape"
   xmlns:sodipodi="http://sodipodi.sourceforge.net/DTD/sodipodi-0.dtd"
   xmlns="http://www.w3.org/2000/svg"
   xmlns:svg="http://www.w3.org/2000/svg">
    <sodipodi:namedview
   id="namedview1"
   pagecolor="#505050"
   bordercolor="#eeeeee"
   borderopacity="1"
   inkscape:showpageshadow="0"
   inkscape:pageopacity="0"
   inkscape:pagecheckerboard="0"
   inkscape:deskcolor="#505050"
   inkscape:document-units="mm"
   showguides="false"
   inkscape:zoom="0.092645866"
   inkscape:cx="523.4988"
   inkscape:cy="-393.97333"
   inkscape:window-width="3416"
   inkscape:window-height="1388"
   inkscape:window-x="0"
   inkscape:window-y="0"
   inkscape:window-maximized="1"
   inkscape:current-layer="layer1" />
    <defs
   id="defs1" />
    <g
   inkscape:label="Layer 1"
   inkscape:groupmode="layer"
   id="layer1">
        <path
   id="path2"
   style="fill:#1ed760;fill-opacity:1;stroke-width:1.43204"
   d="M 500.0014,-1.0000056e-4 A 500.00065,500.00065 0 0 0 0,499.99859 500.00065,500.00065 0 0 0 500.0014,1000 500.00065,500.00065 0 0 0 1000,499.99859 500.00065,500.00065 0 0 0 500.0014,-1.0000056e-4 Z M 222.31919,222.31635 h 555.36166 c 33.93887,0 61.70934,27.77041 61.70934,61.7093 v 431.94863 c 0,33.93889 -16.31417,61.70645 -50.25303,61.70645 H 593.21291 c 0,0 -31.07888,-0.11417 -31.50495,-31.48257 -0.40268,-29.66752 31.50495,-30.22388 31.50495,-30.22388 H 777.68085 V 284.02565 H 222.31919 v 61.05491 c 0,0 -0.36388,31.50492 -31.27562,31.50492 -30.37097,0 -30.43092,-31.50492 -30.43092,-31.50492 v -61.05491 c 0,-33.93889 27.76768,-61.7093 61.70654,-61.7093 z m 41.72785,156.27738 c 1.87841,0.11367 3.76966,0.41516 5.64706,0.91453 107.6534,30.00823 254.08473,130.93028 312.85677,247.14508 7.01545,13.8751 1.34764,30.83236 -12.53035,37.83451 -13.4698,7.69889 -30.72599,1.85273 -37.731,-12.03811 l -0.005,0.0112 C 481.04771,551.32585 348.36159,460.43011 254.61304,434.1442 c -15.0192,-3.99527 -23.77291,-19.83951 -19.77731,-34.8585 3.49572,-13.14148 16.06261,-21.48501 29.21146,-20.68913 z m -39.41198,96.36646 c 1.56308,0.13368 3.14248,0.42817 4.71848,0.89503 110.475,30.94226 217.1232,117.68265 265.1966,216.37845 5.65076,11.30349 0.62796,25.23059 -11.16825,31.00433 h -0.0164 c -11.79932,5.76064 -25.74559,0.74743 -31.68114,-10.75992 -41.78693,-85.69888 -138.5475,-164.43115 -235.1124,-191.65882 -12.6026,-3.74497 -19.8867,-16.51203 -16.34264,-28.81699 3.27667,-11.02708 13.46199,-17.9818 24.40348,-17.04472 z m -45.13174,85.36316 c 2.41415,-0.13582 4.89308,0.21169 7.31685,1.11048 111.36067,39.64934 188.8322,102.23284 229.68359,186.05938 4.71673,9.36381 0.9085,20.7774 -8.48598,25.43274 h 0.0334 c -9.41797,4.71181 -20.52799,0.6299 -25.23977,-8.78804 -36.75014,-74.78628 -106.77481,-130.92774 -208.56373,-167.4736 -9.69582,-3.59483 -14.92377,-14.20493 -11.32771,-23.89998 2.69855,-7.27073 9.34078,-12.03253 16.5832,-12.44098 z" />
    </g>
</svg>
